<?xml version="1.0" encoding="utf-8"?>
<!-- Svg Vector Icons : http://www.onlinewebfonts.com/icon -->
<!DOCTYPE svg PUBLIC "-//W3C//DTD SVG 1.1//EN" "http://www.w3.org/Graphics/SVG/1.1/DTD/svg11.dtd">
<svg version="1.1" xmlns="http://www.w3.org/2000/svg" xmlns:xlink="http://www.w3.org/1999/xlink" x="0px" y="0px" viewBox="0 0 1000 1000" enable-background="new 0 0 1000 1000" xml:space="preserve">
<metadata> Svg Vector Icons : http://www.onlinewebfonts.com/icon </metadata>
<g><path d="M500,10C229.4,10,10,229.4,10,500s219.4,490,490,490s490-219.4,490-490S770.6,10,500,10z M500,944.8c-244.7,0-443.1-198.4-443.1-443.1C56.9,256.9,255.3,58.6,500,58.6c244.7,0,443.1,198.4,443.1,443.1C943.1,746.4,744.7,944.8,500,944.8z"/><path d="M544.2,345.8c-7.3-7.3-20-6.5-28.2,1.8c-8.3,8.3-9.1,20.9-1.8,28.2l115.1,111.9H318.9c-12.3,0-22.3,10-22.3,22.3c0,12.3,10,22.3,22.3,22.3h314.8l-119.5,123c-7.3,7.3-6.5,20,1.8,28.2c8.3,8.3,20.9,9.1,28.2,1.8l153-157.4h0.3c8.3-8.3,12.4-20.9,5.1-28.2L544.2,345.8z"/></g>
</svg>