<svg version="1.1" xmlns="http://www.w3.org/2000/svg" xmlns:xlink="http://www.w3.org/1999/xlink" width="31" height="36" viewBox="0,0,220.4375,256"><g fill="#2a36f1" fill-rule="nonzero" stroke="none" stroke-width="1" stroke-linecap="butt" stroke-linejoin="miter" stroke-miterlimit="10" stroke-dasharray="" stroke-dashoffset="0" font-family="none" font-weight="none" font-size="none" text-anchor="none" style="mix-blend-mode: normal"><g transform="translate(2.17288,0) scale(7.11111,7.11111)"><path d="M7.32205,17.7038v-7.2807l7.87255,-4.45977c2.6271,1.4866 5.2484,2.9732 7.8726,4.45977v11.2751h-14.11833h-7.31495c-0.26731,-0.5981 -0.54036,-1.1876 -0.76168,-1.7998c-0.90826,-2.5134 -1.10658,-5.2157 -0.59784,-7.8138c0.55185,-2.83213 1.94586,-5.53171 4.17628,-7.71789c2.96909,-2.91114 6.85792,-4.36671 10.74392,-4.36671c3.8917,0 7.7806,1.45557 10.7439,4.36671c2.9662,2.91397 4.4494,6.73059 4.4494,10.54439c0,3.8167 -1.4832,7.6362 -4.4494,10.5445l-10.7439,10.5444l-10.74392,-10.5416c-0.45413,-0.4457 -0.88527,-0.9253 -1.27904,-1.4245h3.18754l8.83542,8.6741l9.0682,-8.8998c2.5006,-2.4542 3.7538,-5.6784 3.7538,-8.8971c0,-3.2186 -1.2532,-6.44001 -3.7538,-8.897c-2.5034,-2.4598 -5.7887,-3.68688 -9.0682,-3.68688c-3.2795,0 -6.5619,1.2299 -9.06536,3.68406c-1.88551,1.8505 -3.0582,4.12412 -3.52383,6.50492c-0.44838,2.2793 -0.24718,4.6516 0.59497,6.8463h17.49262v-7.6023c-1.8366,-1.0409 -3.6675,-2.07896 -5.4984,-3.11704l-5.49555,3.11704v5.9492h-2.377z"></path></g></g></svg>